<svg width="31" height="31" viewBox="0 0 31 31" fill="none" xmlns="http://www.w3.org/2000/svg">
<rect x="0.0670471" y="0.680203" width="30.1676" height="30.1676" rx="3.01676" fill="#142E67"/>
<path d="M8.08031 20.4777L10.6563 11.462C10.6916 11.339 10.7659 11.2308 10.8681 11.1537C10.9703 11.0767 11.0948 11.035 11.2228 11.035C11.3507 11.035 11.4752 11.0767 11.5774 11.1537C11.6796 11.2308 11.754 11.339 11.7892 11.462L14.3652 20.4777" stroke="white" stroke-width="0.75419" stroke-linecap="round" stroke-linejoin="round"/>
<path d="M22.2214 11.0503H19.0789C18.4538 11.0503 17.8544 11.2986 17.4124 11.7406C16.9704 12.1826 16.7221 12.7821 16.7221 13.4072C16.7221 14.0322 16.9704 14.6317 17.4124 15.0737C17.8544 15.5157 18.4538 15.764 19.0789 15.764H19.8645C20.4896 15.764 21.0891 16.0123 21.5311 16.4543C21.9731 16.8963 22.2214 17.4958 22.2214 18.1209C22.2214 18.7459 21.9731 19.3454 21.5311 19.7874C21.0891 20.2294 20.4896 20.4777 19.8645 20.4777H16.7221" stroke="white" stroke-width="0.75419" stroke-linecap="round" stroke-linejoin="round"/>
<path d="M19.0789 22.0489V20.4777" stroke="white" stroke-width="0.75419" stroke-linecap="round" stroke-linejoin="round"/>
<path d="M19.8645 11.0503V9.47912" stroke="white" stroke-width="0.75419" stroke-linecap="round" stroke-linejoin="round"/>
<path d="M9.25873 17.3352H13.1868" stroke="white" stroke-width="0.75419" stroke-linecap="round" stroke-linejoin="round"/>
</svg>
