<svg width="31" height="31" viewBox="0 0 31 31" fill="none" xmlns="http://www.w3.org/2000/svg">
<rect x="0.0670471" y="0.129944" width="30.1676" height="30.1676" rx="3.01676" fill="#452534"/>
<path d="M22.2214 10.5H19.0789C18.4538 10.5 17.8544 10.7483 17.4124 11.1903C16.9704 11.6323 16.7221 12.2318 16.7221 12.8569C16.7221 13.482 16.9704 14.0814 17.4124 14.5234C17.8544 14.9654 18.4538 15.2137 19.0789 15.2137H19.8645C20.4896 15.2137 21.0891 15.462 21.5311 15.904C21.9731 16.346 22.2214 16.9455 22.2214 17.5706C22.2214 18.1956 21.9731 18.7951 21.5311 19.2371C21.0891 19.6791 20.4896 19.9274 19.8645 19.9274H16.7221" stroke="white" stroke-width="0.75419" stroke-linecap="round" stroke-linejoin="round"/>
<path d="M13.5796 19.9274H12.794C11.5438 19.9274 10.3449 19.4308 9.46091 18.5468C8.57693 17.6628 8.08031 16.4639 8.08031 15.2137C8.08031 13.9636 8.57693 12.7646 9.46091 11.8806C10.3449 10.9967 11.5438 10.5 12.794 10.5H13.5796" stroke="white" stroke-width="0.75419" stroke-linecap="round" stroke-linejoin="round"/>
<path d="M19.0789 21.4986V19.9274" stroke="white" stroke-width="0.75419" stroke-linecap="round" stroke-linejoin="round"/>
<path d="M19.8645 10.5V8.9288" stroke="white" stroke-width="0.75419" stroke-linecap="round" stroke-linejoin="round"/>
</svg>
