<svg width="25" height="25" viewBox="0 0 25 25" fill="none" xmlns="http://www.w3.org/2000/svg">
<g opacity="0.0168933">
<path d="M12.5 0C19.3988 0 25 5.60125 25 12.5C25 19.3988 19.3988 25 12.5 25C5.60125 25 0 19.3988 0 12.5C0 5.60125 5.60125 0 12.5 0Z" fill="#00BC4F"/>
</g>
<g opacity="0.353972">
<path d="M12.5 4.24185C17.0577 4.24185 20.7582 7.94235 20.7582 12.5C20.7582 17.0577 17.0577 20.7582 12.5 20.7582C7.94232 20.7582 4.24182 17.0577 4.24182 12.5C4.24182 7.94235 7.94232 4.24185 12.5 4.24185Z" fill="#00BC4F"/>
</g>
<g opacity="0.691051">
<path d="M12.4999 8.48361C14.7165 8.48361 16.5163 10.2833 16.5163 12.5C16.5163 14.7166 14.7165 16.5164 12.4999 16.5164C10.2833 16.5164 8.48352 14.7166 8.48352 12.5C8.48352 10.2833 10.2833 8.48361 12.4999 8.48361Z" fill="#00BC4F"/>
</g>
</svg>
