<svg width="31" height="31" viewBox="0 0 31 31" fill="none" xmlns="http://www.w3.org/2000/svg">
<rect x="0.0670471" y="0.579651" width="30.1676" height="30.1676" rx="3.01676" fill="#2A4628"/>
<path d="M18.731 12.2965C18.5746 11.8529 18.289 11.4661 17.911 11.1861C17.533 10.9061 17.0798 10.7456 16.6098 10.7253H13.4674C12.8423 10.7253 12.2428 10.9736 11.8008 11.4156C11.3588 11.8576 11.1105 12.4571 11.1105 13.0822C11.1105 13.7072 11.3588 14.3067 11.8008 14.7487C12.2428 15.1907 12.8423 15.439 13.4674 15.439H16.6098C17.2349 15.439 17.8344 15.6873 18.2764 16.1293C18.7184 16.5713 18.9667 17.1708 18.9667 17.7958C18.9667 18.4209 18.7184 19.0204 18.2764 19.4624C17.8344 19.9044 17.2349 20.1527 16.6098 20.1527H13.4674C12.9974 20.1324 12.5442 19.9719 12.1662 19.6919C11.7882 19.4119 11.5026 19.0251 11.3462 18.5815" stroke="white" stroke-width="1.31983" stroke-linecap="round" stroke-linejoin="round"/>
<path d="M15.1508 8.4807V10.8375M15.1508 20.2649V22.6218" stroke="white" stroke-width="1.31983" stroke-linecap="round" stroke-linejoin="round"/>
</svg>
