<svg width="31" height="31" viewBox="0 0 31 31" fill="none" xmlns="http://www.w3.org/2000/svg">
<rect x="0.0670471" y="0.230499" width="30.1676" height="30.1676" rx="3.01676" fill="#1D324B"/>
<g clip-path="url(#clip0_13_800)">
<path d="M19.236 11.3863C18.573 10.6284 17.733 10.1158 16.8213 9.91265C15.9096 9.70953 14.9668 9.82495 14.1111 10.2444C13.2554 10.6639 12.5249 11.3689 12.0112 12.2708C11.4975 13.1727 11.2234 14.2315 11.2234 15.3143C11.2234 16.3972 11.4975 17.456 12.0112 18.3579C12.5249 19.2598 13.2554 19.9647 14.1111 20.3842C14.9668 20.8037 15.9096 20.9191 16.8213 20.716C17.733 20.5129 18.573 20.0003 19.236 19.2424" stroke="white" stroke-width="0.75419" stroke-linecap="round" stroke-linejoin="round"/>
<path d="M15.9365 13.7431H9.65154M9.65154 16.8856H15.9365" stroke="white" stroke-width="0.75419" stroke-linecap="round" stroke-linejoin="round"/>
</g>
<defs>
<clipPath id="clip0_13_800">
<rect width="18.8547" height="18.8547" fill="white" transform="translate(5.72346 5.88696)"/>
</clipPath>
</defs>
</svg>
