<svg width="31" height="31" viewBox="0 0 31 31" fill="none" xmlns="http://www.w3.org/2000/svg">
<rect x="0.0670471" y="0.763947" width="30.1676" height="30.1676" rx="3.01676" fill="#2C4D54"/>
<g clip-path="url(#clip0_13_700)">
<path d="M16.6946 21.8106V18.346C16.6946 18.1928 16.6337 18.046 16.5255 17.9377C16.4172 17.8294 16.2703 17.7686 16.1172 17.7686H13.8075C13.6543 17.7686 13.5074 17.8294 13.3991 17.9377C13.2909 18.046 13.23 18.1928 13.23 18.346V21.8106C13.23 21.9637 13.1692 22.1106 13.0609 22.2189C12.9526 22.3271 12.8057 22.388 12.6526 22.388H9.18804C9.03489 22.388 8.88802 22.3271 8.77974 22.2189C8.67145 22.1106 8.61061 21.9637 8.61061 21.8106V15.1341C8.6119 15.0541 8.62917 14.9753 8.6614 14.9022C8.69363 14.829 8.74017 14.7631 8.79827 14.7082L14.5725 9.46084C14.679 9.36346 14.818 9.30945 14.9623 9.30945C15.1066 9.30945 15.2456 9.36346 15.3521 9.46084L21.1263 14.7082C21.1844 14.7631 21.231 14.829 21.2632 14.9022C21.2954 14.9753 21.3127 15.0541 21.314 15.1341V21.8106C21.314 21.9637 21.2532 22.1106 21.1449 22.2189C21.0366 22.3271 20.8897 22.388 20.7366 22.388H17.272C17.1189 22.388 16.972 22.3271 16.8637 22.2189C16.7554 22.1106 16.6946 21.9637 16.6946 21.8106Z" stroke="white" stroke-width="0.577427" stroke-linecap="round" stroke-linejoin="round"/>
</g>
<defs>
<clipPath id="clip0_13_700">
<rect width="18.4777" height="18.4777" fill="white" transform="translate(5.72346 6.79745)"/>
</clipPath>
</defs>
</svg>
