<svg width="31" height="31" viewBox="0 0 31 31" fill="none" xmlns="http://www.w3.org/2000/svg">
<rect x="0.0670471" y="0.780807" width="30.1676" height="30.1676" rx="3.01676" fill="#5B2C2B"/>
<path d="M19.0789 20.9711C18.4627 21.2536 17.7928 21.3998 17.1149 21.3998C16.437 21.3998 15.7671 21.2536 15.1508 20.9711C14.5066 20.7488 13.8218 20.6687 13.1437 20.7365C12.4656 20.8043 11.8102 21.0184 11.2228 21.3639C11.6434 21.2184 12.0142 20.9566 12.2923 20.609C12.5703 20.2615 12.7443 19.8422 12.794 19.3999V13.5078C12.7981 12.8195 13.0281 12.1517 13.4486 11.6068C13.8691 11.0619 14.4569 10.6702 15.1216 10.4917C15.7864 10.3133 16.4913 10.358 17.1282 10.619C17.765 10.88 18.2985 11.3429 18.6468 11.9366M16.6435 16.6503H11.1442" stroke="white" stroke-width="0.75419" stroke-linecap="round" stroke-linejoin="round"/>
</svg>
