<svg width="31" height="31" viewBox="0 0 31 31" fill="none" xmlns="http://www.w3.org/2000/svg">
<rect x="0.274399" y="0.476303" width="30.1676" height="30.1676" rx="3.01676" fill="#5A4B2C"/>
<path d="M12.2157 21.0594V10.0608H14.9654C15.4297 10.0608 15.8894 10.1523 16.3183 10.3299C16.7472 10.5076 17.1369 10.768 17.4652 11.0963C17.7935 11.4246 18.0539 11.8143 18.2316 12.2432C18.4092 12.6721 18.5007 13.1318 18.5007 13.5961C18.5007 14.0603 18.4092 14.5201 18.2316 14.949C18.0539 15.3779 17.7935 15.7676 17.4652 16.0959C17.1369 16.4242 16.7472 16.6846 16.3183 16.8622C15.8894 17.0399 15.4297 17.1314 14.9654 17.1314H12.2157" stroke="white" stroke-width="0.75419" stroke-linecap="round" stroke-linejoin="round"/>
<path d="M20.0719 12.4177H10.6445" stroke="white" stroke-width="0.75419" stroke-linecap="round" stroke-linejoin="round"/>
<path d="M20.0719 14.7745H10.6445" stroke="white" stroke-width="0.75419" stroke-linecap="round" stroke-linejoin="round"/>
</svg>
